<svg xmlns="http://www.w3.org/2000/svg" height="20" width="20" fill="#fff"><path d="M4.5 17q-.625 0-1.062-.438Q3 16.125 3 15.5v-11q0-.625.438-1.062Q3.875 3 4.5 3H14l3 3v5.458l-1.5 1.5V6.625L13.375 4.5H4.5v11h8.479l-1.5 1.5Zm5.5-2.25q.938 0 1.594-.656.656-.656.656-1.594 0-.938-.656-1.594-.656-.656-1.594-.656-.938 0-1.594.656-.656.656-.656 1.594 0 .938.656 1.594.656.656 1.594.656ZM5.5 8.5h7v-3h-7ZM13 19v-1.417l3.812-3.812 1.417 1.417L14.417 19Zm5.729-4.312-1.417-1.417.626-.625q.145-.146.354-.146.208 0 .354.146l.708.708q.146.146.146.354 0 .209-.146.354ZM4.5 15.5v-11 8.458Z"/></svg>